<?xml version="1.0" encoding="UTF-8"?>
<svg version="1.1" xmlns="http://www.w3.org/2000/svg" width="512" height="512">
<path d="M0 0 C118.8 0 237.6 0 360 0 C360 80.52 360 161.04 360 244 C355.64687515 242.54895838 353.0781073 241.63676099 349.4453125 239.26953125 C348.59598145 238.72176025 347.74665039 238.17398926 346.87158203 237.60961914 C345.51202393 236.72004517 345.51202393 236.72004517 344.125 235.8125 C342.14644733 234.53550651 340.16725858 233.25949813 338.1875 231.984375 C337.1665625 231.32501953 336.145625 230.66566406 335.09375 229.98632812 C330.13188635 226.80058612 325.1295529 223.6805951 320.125 220.5625 C319.12871582 219.94093018 318.13243164 219.31936035 317.10595703 218.67895508 C315.08157163 217.41603425 313.05699465 216.15342048 311.03222656 214.89111328 C306.01909459 211.76456576 301.00972757 208.63199839 296 205.5 C294.00001829 204.24997074 292.00001828 202.99997074 290 201.75 C230 164.25 230 164.25 226.99511719 162.37158203 C225.01183269 161.13227171 223.02811448 159.89365517 221.04394531 158.65576172 C216.35010456 155.72616832 211.66109648 152.78962352 206.98718262 149.82830811 C205.31804445 148.77121941 203.64731305 147.71664781 201.9765625 146.66210938 C199.86961172 145.3318735 197.76531627 143.99741993 195.6640625 142.65820312 C194.71789062 142.06201172 193.77171875 141.46582031 192.796875 140.8515625 C191.96510742 140.32385254 191.13333984 139.79614258 190.27636719 139.25244141 C188.0708256 138.03896775 186.5015597 137.24511677 184 137 C181.88599575 137.74833488 181.88599575 137.74833488 179.7890625 139.0703125 C178.96857422 139.54750732 178.14808594 140.02470215 177.30273438 140.51635742 C176.41908203 141.04720947 175.53542969 141.57806152 174.625 142.125 C173.69236328 142.67196533 172.75972656 143.21893066 171.79882812 143.7824707 C168.85891631 145.51013656 165.9292535 147.25433786 163 149 C161.24805355 150.03366764 159.49546949 151.06625554 157.7421875 152.09765625 C154.15771364 154.20858024 150.5775874 156.32664595 147 158.44921875 C140.18109036 162.4907764 133.34045804 166.49508316 126.5 170.5 C117.99012057 175.48336839 109.48638004 180.4766719 101 185.5 C91.88724072 190.89409966 82.7535281 196.25201516 73.61572266 201.60351562 C64.87098338 206.72527189 56.13750094 211.86554114 47.41748047 217.02929688 C42.11178663 220.16862154 36.7975813 223.2929987 31.4765625 226.40625 C30.82661316 226.78664429 30.17666382 227.16703857 29.50701904 227.55895996 C26.30378801 229.43348517 23.09977976 231.306661 19.89453125 233.17773438 C14.97702724 236.0528091 10.07079086 238.92693154 5.2734375 242 C2 244 2 244 0 244 C0 163.48 0 82.96 0 0 Z " fill="#FFFFFF" transform="translate(81,215)"/>
<path d="M0 0 C118.8 0 237.6 0 360 0 C360 20.46 360 40.92 360 62 C241.2 62 122.4 62 0 62 C0 41.54 0 21.08 0 0 Z " fill="#FFFFFF" transform="translate(81,133)"/>
<path d="M0 0 C118.8 0 237.6 0 360 0 C360 20.46 360 40.92 360 62 C241.2 62 122.4 62 0 62 C0 41.54 0 21.08 0 0 Z " fill="#FFFFFF" transform="translate(81,51)"/>
</svg>
